<?xml version="1.0" standalone="no"?>
<!DOCTYPE svg PUBLIC "-//W3C//DTD SVG 20010904//EN"
 "http://www.w3.org/TR/2001/REC-SVG-20010904/DTD/svg10.dtd">
<svg version="1.0" xmlns="http://www.w3.org/2000/svg"
 width="225.000000pt" height="225.000000pt" viewBox="0 0 225.000000 225.000000"
 preserveAspectRatio="xMidYMid meet">

<g transform="translate(0.000000,225.000000) scale(0.100000,-0.100000)"
fill="#000000" stroke="none">
<path d="M984 1846 c-231 -53 -427 -207 -520 -410 l-25 -56 -70 0 -69 0 0
-209 c0 -206 0 -210 22 -225 12 -9 39 -16 59 -16 34 0 37 -3 48 -42 22 -75 90
-194 145 -254 l53 -59 36 28 c20 15 38 27 41 27 3 0 27 -15 53 -34 228 -162
532 -162 754 0 26 19 51 34 56 34 5 0 20 -11 33 -25 13 -14 29 -25 36 -25 39
0 173 201 205 308 l12 42 59 0 59 0 -3 211 c-3 241 -3 239 -89 239 l-47 0 -37
72 c-95 188 -267 328 -470 384 -82 22 -263 27 -341 10z m330 -26 c107 -27 223
-90 305 -166 71 -66 149 -170 176 -236 l15 -38 -42 0 c-42 1 -44 2 -78 63 -19
34 -67 94 -106 134 -57 57 -90 80 -165 116 -111 53 -169 67 -287 67 -140 0
-249 -34 -363 -111 -71 -48 -159 -144 -196 -215 -27 -52 -29 -54 -70 -54 -24
0 -43 3 -43 6 0 3 17 38 37 78 55 105 192 239 300 295 46 23 115 50 155 61
101 26 260 26 362 0z m-15 -97 c132 -34 284 -146 363 -267 21 -33 38 -63 38
-68 0 -4 -254 -8 -565 -8 -311 0 -565 4 -565 8 0 23 84 134 141 187 62 58 166
120 239 144 100 32 238 33 349 4z m-429 -463 c0 -15 -7 -20 -25 -20 -18 0 -25
5 -25 20 0 15 7 20 25 20 18 0 25 -5 25 -20z m-190 -85 l0 -95 60 0 c53 0 60
-2 60 -20 0 -18 -7 -20 -85 -20 l-85 0 0 115 0 115 25 0 c25 0 25 0 25 -95z
m890 35 c0 -27 3 -30 30 -30 23 0 30 -4 30 -20 0 -16 -7 -20 -30 -20 -28 0
-30 -3 -30 -36 0 -31 -3 -35 -22 -32 -18 2 -24 11 -26 36 -3 28 -7 32 -33 32
-22 0 -29 5 -29 20 0 16 7 20 30 20 25 0 30 4 30 23 0 28 7 37 32 37 13 0 18
-8 18 -30z m-702 -82 l3 -88 -26 0 c-25 0 -25 0 -25 91 0 88 1 90 23 87 21 -3
22 -8 25 -90z m82 80 c0 -9 3 -9 12 0 19 19 63 14 84 -9 13 -15 20 -40 22 -90
4 -68 4 -69 -21 -69 -25 0 -26 3 -29 61 -2 45 -8 65 -20 72 -30 19 -48 -8 -48
-74 0 -56 -1 -59 -25 -59 -25 0 -25 1 -25 83 0 46 3 87 7 90 11 12 43 8 43 -5z
m190 -47 c0 -55 15 -91 38 -91 25 1 36 24 40 84 4 56 7 66 23 66 17 0 19 -9
19 -90 0 -83 -1 -90 -20 -90 -11 0 -20 5 -20 11 0 5 -10 3 -22 -5 -30 -21 -54
-20 -78 4 -16 16 -20 33 -20 95 0 68 2 75 20 75 18 0 20 -7 20 -59z m207 32
l23 -28 21 28 c11 15 29 27 40 27 25 0 24 -7 -6 -46 -14 -18 -25 -38 -25 -45
0 -7 11 -27 25 -45 31 -40 31 -44 2 -44 -15 0 -29 9 -37 25 -7 14 -17 25 -21
25 -3 0 -14 -11 -23 -25 -10 -15 -26 -25 -41 -25 l-25 0 31 44 31 44 -31 46
c-31 45 -32 46 -9 46 12 0 32 -12 45 -27z m-812 -309 c27 -70 62 -129 111
-183 l46 -51 -29 -25 c-15 -13 -31 -25 -35 -25 -16 0 -102 122 -143 204 -57
112 -58 126 -6 126 36 0 39 -2 56 -46z m1189 24 c-19 -63 -120 -222 -154 -243
-5 -3 -30 7 -57 23 -86 50 -143 70 -279 97 -15 3 -20 13 -21 41 -1 49 -30 76
-78 76 -49 0 -77 -28 -80 -79 -3 -37 -4 -38 -49 -45 -66 -9 -161 -43 -236 -84
l-65 -35 -43 48 c-40 45 -122 188 -122 212 0 8 170 11 596 11 l595 0 -7 -22z
m102 -5 c-12 -54 -86 -189 -133 -245 -26 -31 -50 -57 -53 -57 -3 0 -18 10 -34
23 l-29 24 47 54 c26 29 66 92 89 140 42 87 42 87 81 88 37 0 38 -1 32 -27z
m-649 -35 c13 -12 23 -31 23 -42 0 -19 -6 -21 -65 -21 -61 0 -65 1 -65 23 0
28 33 62 62 62 12 0 32 -10 45 -22z m-13 -74 c13 -5 14 -9 5 -20 -13 -16 -47
-18 -69 -4 -29 19 25 39 64 24z m-145 -62 c-6 -18 -17 -32 -24 -32 -29 0 -34
-25 -18 -88 l15 -62 49 0 c33 0 49 4 49 13 0 8 16 12 45 12 29 0 45 -4 45 -12
0 -9 16 -13 45 -13 40 0 47 3 56 28 6 15 12 47 12 72 2 39 -1 45 -19 48 -15 2
-24 13 -28 34 -3 17 -5 32 -4 34 2 1 36 -7 77 -17 77 -20 221 -85 221 -100 0
-17 -95 -79 -168 -109 -141 -60 -312 -63 -455 -10 -62 23 -179 97 -185 117 -5
16 131 79 219 102 41 10 75 18 77 17 1 -2 -3 -17 -9 -34z m77 23 c16 -8 34
-15 39 -15 6 0 23 7 39 15 36 19 33 20 51 -15 20 -39 20 -40 -14 -40 -29 0
-30 -2 -33 -52 l-3 -53 -40 0 -40 0 -3 53 c-3 50 -4 52 -33 52 -33 0 -37 14
-13 48 18 26 15 26 50 7z m-73 -107 c8 -18 21 -39 30 -47 25 -20 21 -31 -13
-31 -32 0 -40 11 -55 78 -5 25 -3 32 9 32 9 0 22 -15 29 -32z m47 2 c0 -37
-13 -39 -28 -5 -16 34 -15 35 8 35 16 0 20 -7 20 -30z m163 13 c-16 -45 -43
-57 -43 -20 0 28 7 37 31 37 13 0 17 -5 12 -17z m57 14 c0 -2 -7 -27 -15 -55
-15 -50 -17 -52 -50 -52 -39 0 -46 14 -16 30 11 5 25 26 32 45 8 22 20 35 31
35 10 0 18 -1 18 -3z"/>
<path d="M794 1565 c-27 -27 -26 -59 4 -82 25 -20 92 -14 92 8 0 5 -11 3 -25
-3 -51 -23 -101 32 -63 70 15 15 64 16 73 2 3 -5 12 -10 18 -10 20 1 -34 40
-55 40 -10 0 -30 -11 -44 -25z"/>
<path d="M1205 1580 c3 -5 15 -10 26 -10 16 0 19 -7 19 -44 0 -25 5 -48 10
-51 6 -4 10 13 10 44 0 48 2 51 25 51 14 0 25 5 25 10 0 6 -27 10 -61 10 -37
0 -58 -4 -54 -10z"/>
<path d="M1330 1531 c0 -28 5 -53 10 -56 6 -4 10 15 10 49 0 31 -4 56 -10 56
-5 0 -10 -22 -10 -49z"/>
<path d="M1386 1528 c-23 -50 -26 -83 -5 -45 13 23 67 23 85 0 12 -16 13 -15
4 10 -17 47 -40 87 -51 87 -5 0 -21 -24 -33 -52z m48 16 c10 -26 7 -34 -14
-34 -11 0 -20 4 -20 9 0 17 12 41 20 41 4 0 11 -7 14 -16z"/>
<path d="M912 1538 c-30 -30 -2 -72 45 -66 23 2 29 9 31 32 2 16 -2 32 -10 37
-19 12 -52 11 -66 -3z m56 -7 c20 -12 10 -45 -14 -49 -29 -4 -51 23 -34 43 14
17 29 19 48 6z"/>
<path d="M1012 1538 c-15 -15 -16 -72 -2 -63 6 3 10 17 10 30 0 52 38 38 41
-15 1 -19 3 -17 8 10 4 22 12 35 21 35 9 0 18 -13 22 -35 l6 -35 -1 40 -2 40
-46 2 c-25 1 -51 -3 -57 -9z"/>
<path d="M1140 1531 c-13 -25 -13 -91 0 -91 6 0 10 20 10 44 0 46 15 61 46 49
23 -9 13 -46 -16 -55 -23 -6 -23 -7 5 -5 25 2 31 7 33 31 2 16 -2 32 -10 37
-23 15 -57 10 -68 -10z"/>
</g>
</svg>
